<svg xmlns="http://www.w3.org/2000/svg" width="1200" height="630" viewBox="0 0 1200 630" fill="none">
  <rect width="1200" height="630" fill="#0A0F1C"/>
  <defs>
    <linearGradient id="g" x1="0" x2="1" y1="0" y2="0">
      <stop offset="0%" stop-color="#7C3AED"/>
      <stop offset="100%" stop-color="#22D3EE"/>
    </linearGradient>
  </defs>
  <g opacity="0.4">
    <circle cx="200" cy="120" r="160" fill="#7C3AED"/>
    <circle cx="1000" cy="520" r="200" fill="#22D3EE"/>
  </g>
  <g stroke="url(#g)" stroke-width="24" fill="none" stroke-linecap="round" transform="translate(360,120)">
    <path d="M420 140c-30-36-74-54-124-54-99 0-168 69-168 144s69 144 168 144c50 0 94-18 124-54"/>
    <path d="M334 140c-30-36-74-54-124-54-99 0-168 69-168 144s69 144 168 144c50 0 94-18 124-54" opacity="0.6"/>
  </g>
  <text x="100" y="120" font-size="56" fill="#fff" font-family="Poppins, Arial, sans-serif" font-weight="700">The CodeCrush</text>
  <text x="100" y="170" font-size="28" fill="#fff" font-family="Inter, Arial, sans-serif" opacity="0.9">Learn to Love Logic</text>
  <rect x="100" y="220" width="360" height="60" rx="10" fill="url(#g)"/>
  <text x="120" y="260" font-size="24" fill="#0A0F1C" font-family="Inter, Arial, sans-serif" font-weight="600">Let’s CC it!</text>
</svg>

